<svg width="32" height="32" viewBox="0 0 32 32" fill="none" xmlns="http://www.w3.org/2000/svg">
<path d="M19.6555 30.8433L19.66 20.5456C19.7165 20.1524 20.0357 19.7971 20.4486 19.7226L30.7699 19.7341C31.1639 19.7907 31.4831 19.4353 31.5584 18.9111L31.5797 13.1631C31.6362 12.77 31.2798 12.4513 30.7544 12.3759L20.433 12.3644C20.0389 12.3078 19.6826 11.9891 19.6077 11.5771L19.6122 1.27937C19.6687 0.886248 19.3122 0.567556 18.7868 0.492081L13.0256 0.466976C12.6316 0.410369 12.3124 0.765751 12.2371 1.28992L12.2326 11.5877C12.1761 11.9808 11.857 12.3362 11.4441 12.4106L1.1227 12.3991C0.728641 12.3425 0.409462 12.6979 0.334166 13.2221L0.312831 18.9701C0.256359 19.3632 0.61279 19.6819 1.13821 19.7574L11.4596 19.7688C11.8536 19.8254 12.2101 20.1441 12.285 20.5561L12.2804 30.8538C12.2239 31.247 12.5803 31.5656 13.1058 31.6411L18.8669 31.6662C19.2798 31.5918 19.599 31.2364 19.6555 30.8433Z" fill="#FDD08D"/>
</svg>
